<svg id="svg" xmlns="http://www.w3.org/2000/svg" xmlns:xlink="http://www.w3.org/1999/xlink" width="400" height="120.83333333333333" viewBox="0, 0, 400,120.83333333333333" version="1.1"><g id="svgg"><path id="path0" d="M42.167 32.641 C 42.167 32.713,42.485 32.947,42.875 33.162 C 43.700 33.616,43.666 33.528,42.787 32.931 C 42.446 32.700,42.167 32.569,42.167 32.641 M51.000 35.389 C 51.000 35.432,51.242 35.552,51.538 35.655 C 51.834 35.758,52.002 35.774,51.913 35.690 C 51.723 35.512,51.000 35.274,51.000 35.389 M52.574 36.092 C 52.932 36.359,53.237 36.415,53.096 36.187 C 53.046 36.106,52.835 35.997,52.628 35.945 C 52.263 35.853,52.261 35.858,52.574 36.092 M54.593 37.078 C 54.771 37.213,54.992 37.323,55.083 37.323 C 55.175 37.323,55.104 37.213,54.926 37.078 C 54.749 36.943,54.528 36.833,54.436 36.833 C 54.345 36.833,54.415 36.943,54.593 37.078 M345.074 37.078 C 344.896 37.213,344.825 37.323,344.917 37.323 C 345.008 37.323,345.229 37.213,345.407 37.078 C 345.585 36.943,345.655 36.833,345.564 36.833 C 345.472 36.833,345.251 36.943,345.074 37.078 M56.500 37.915 C 56.500 38.028,57.854 38.702,57.929 38.626 C 57.964 38.591,57.657 38.400,57.246 38.200 C 56.836 38.001,56.500 37.873,56.500 37.915 M58.265 38.858 C 58.389 39.058,59.347 39.542,59.439 39.450 C 59.480 39.409,59.213 39.226,58.845 39.044 C 58.477 38.862,58.216 38.778,58.265 38.858 M60.500 40.075 C 60.500 40.121,60.725 40.274,61.000 40.417 C 61.275 40.559,61.500 40.638,61.500 40.592 C 61.500 40.546,61.275 40.392,61.000 40.250 C 60.725 40.108,60.500 40.029,60.500 40.075 M64.000 42.075 C 64.000 42.121,64.225 42.274,64.500 42.417 C 64.775 42.559,65.000 42.638,65.000 42.592 C 65.000 42.546,64.775 42.392,64.500 42.250 C 64.225 42.108,64.000 42.029,64.000 42.075 M65.167 42.714 C 65.167 42.815,66.461 43.667,66.613 43.667 C 66.679 43.667,66.662 43.604,66.575 43.527 C 66.313 43.295,65.167 42.634,65.167 42.714 M334.035 43.111 C 333.642 43.348,333.353 43.576,333.395 43.617 C 333.468 43.690,334.833 42.847,334.833 42.728 C 334.833 42.634,334.799 42.650,334.035 43.111 M59.917 42.954 C 60.008 43.042,60.383 43.282,60.750 43.488 C 61.117 43.694,61.267 43.737,61.083 43.585 C 60.711 43.275,59.655 42.705,59.917 42.954 M62.833 44.721 C 63.063 44.842,63.419 45.031,63.625 45.143 C 64.231 45.470,64.054 45.232,63.407 44.850 C 63.081 44.657,62.725 44.500,62.615 44.501 C 62.506 44.502,62.604 44.601,62.833 44.721 M66.167 46.566 C 66.167 46.688,67.372 47.348,67.503 47.299 C 67.574 47.272,67.302 47.081,66.899 46.874 C 66.496 46.667,66.167 46.529,66.167 46.566 M71.500 46.741 C 71.500 46.787,71.725 46.941,72.000 47.083 C 72.275 47.226,72.500 47.304,72.500 47.259 C 72.500 47.213,72.275 47.059,72.000 46.917 C 71.725 46.774,71.500 46.696,71.500 46.741 M72.667 47.404 C 72.667 47.450,73.117 47.793,73.667 48.167 C 74.217 48.540,74.667 48.808,74.667 48.762 C 74.667 48.717,74.217 48.373,73.667 48.000 C 73.117 47.627,72.667 47.358,72.667 47.404 M70.500 49.075 C 70.500 49.121,70.725 49.274,71.000 49.417 C 71.275 49.559,71.500 49.638,71.500 49.592 C 71.500 49.546,71.275 49.392,71.000 49.250 C 70.725 49.108,70.500 49.029,70.500 49.075 M79.187 51.901 C 79.447 52.182,81.076 53.333,81.215 53.333 C 81.300 53.333,81.005 53.072,80.560 52.753 C 79.709 52.143,79.011 51.710,79.187 51.901 M320.033 52.348 C 319.648 52.631,319.333 52.898,319.333 52.941 C 319.333 52.985,319.671 52.778,320.083 52.482 C 320.758 51.998,320.935 51.833,320.783 51.833 C 320.755 51.833,320.418 52.065,320.033 52.348 M75.833 52.494 C 76.063 52.686,76.400 52.921,76.583 53.016 C 76.811 53.134,76.784 53.078,76.500 52.840 C 76.271 52.648,75.933 52.413,75.750 52.317 C 75.523 52.199,75.549 52.255,75.833 52.494 M81.583 53.620 C 81.975 54.005,84.333 55.658,84.328 55.543 C 84.325 55.473,83.786 55.042,83.130 54.583 C 81.829 53.674,81.313 53.353,81.583 53.620 M80.000 55.390 C 80.000 55.454,82.356 57.138,83.394 57.816 C 84.242 58.371,82.640 57.093,81.587 56.376 C 80.116 55.373,80.000 55.301,80.000 55.390 M86.583 57.333 C 86.929 57.608,87.258 57.831,87.315 57.829 C 87.470 57.822,86.272 56.843,86.102 56.838 C 86.021 56.835,86.237 57.058,86.583 57.333 M88.250 58.571 C 88.525 58.809,88.900 59.082,89.083 59.178 C 89.267 59.273,89.192 59.156,88.917 58.917 C 88.642 58.679,88.267 58.406,88.083 58.310 C 87.900 58.215,87.975 58.332,88.250 58.571 M90.833 60.389 C 90.833 60.434,91.133 60.710,91.500 61.000 C 91.867 61.290,92.167 61.491,92.167 61.445 C 92.167 61.399,91.867 61.124,91.500 60.833 C 91.133 60.543,90.833 60.343,90.833 60.389 M87.167 60.545 C 87.167 60.583,87.542 60.931,88.000 61.317 C 88.458 61.704,88.830 61.959,88.826 61.885 C 88.819 61.749,87.167 60.415,87.167 60.545 M92.333 61.564 C 92.333 61.610,92.783 61.993,93.333 62.417 C 93.883 62.840,94.333 63.149,94.333 63.103 C 94.333 63.057,93.883 62.673,93.333 62.250 C 92.783 61.827,92.333 61.518,92.333 61.564 M92.333 64.555 C 92.333 64.687,95.019 66.703,95.095 66.628 C 95.131 66.591,94.844 66.331,94.456 66.050 C 94.068 65.769,93.431 65.299,93.042 65.005 C 92.652 64.712,92.333 64.509,92.333 64.555 M96.167 64.565 C 96.167 64.604,96.542 64.950,97.000 65.333 C 97.458 65.717,97.829 65.968,97.824 65.891 C 97.814 65.750,96.167 64.432,96.167 64.565 M190.792 64.618 C 190.998 64.657,191.335 64.657,191.542 64.618 C 191.748 64.578,191.579 64.545,191.167 64.545 C 190.754 64.545,190.585 64.578,190.792 64.618 M208.458 64.618 C 208.665 64.657,209.002 64.657,209.208 64.618 C 209.415 64.578,209.246 64.545,208.833 64.545 C 208.421 64.545,208.252 64.578,208.458 64.618 M303.301 64.906 C 303.054 65.124,302.683 65.420,302.478 65.564 C 302.272 65.708,302.137 65.860,302.179 65.901 C 302.221 65.943,302.629 65.648,303.086 65.245 C 303.543 64.842,303.879 64.512,303.833 64.512 C 303.787 64.511,303.548 64.689,303.301 64.906 M305.970 65.718 C 305.357 66.191,304.882 66.605,304.915 66.637 C 304.947 66.669,305.486 66.306,306.112 65.828 C 307.471 64.792,307.427 64.830,307.236 64.845 C 307.152 64.852,306.582 65.244,305.970 65.718 M181.375 65.115 C 181.535 65.157,181.798 65.157,181.958 65.115 C 182.119 65.073,181.987 65.039,181.667 65.039 C 181.346 65.039,181.215 65.073,181.375 65.115 M218.042 65.115 C 218.202 65.157,218.465 65.157,218.625 65.115 C 218.785 65.073,218.654 65.039,218.333 65.039 C 218.012 65.039,217.881 65.073,218.042 65.115 M98.667 66.575 C 98.667 66.695,101.003 68.554,101.063 68.481 C 101.092 68.446,100.565 67.985,99.891 67.457 C 99.218 66.929,98.667 66.532,98.667 66.575 M300.031 67.512 C 299.360 68.055,298.865 68.500,298.929 68.500 C 299.068 68.500,301.333 66.687,301.333 66.576 C 301.333 66.457,301.320 66.467,300.031 67.512 M96.321 67.722 C 96.745 68.189,96.837 68.247,96.828 68.042 C 96.825 67.973,96.619 67.773,96.370 67.597 L 95.917 67.277 96.321 67.722 M303.518 67.676 C 303.299 67.859,303.155 68.044,303.198 68.087 C 303.241 68.130,303.452 67.978,303.667 67.749 C 304.135 67.252,304.068 67.219,303.518 67.676 M193.875 67.619 C 194.127 67.658,194.540 67.658,194.792 67.619 C 195.044 67.581,194.838 67.550,194.333 67.550 C 193.829 67.550,193.623 67.581,193.875 67.619 M205.208 67.619 C 205.460 67.658,205.873 67.658,206.125 67.619 C 206.377 67.581,206.171 67.550,205.667 67.550 C 205.162 67.550,204.956 67.581,205.208 67.619 M190.544 67.786 C 190.797 67.825,191.172 67.824,191.377 67.784 C 191.582 67.744,191.375 67.713,190.917 67.714 C 190.458 67.716,190.291 67.748,190.544 67.786 M208.711 67.786 C 208.964 67.825,209.339 67.824,209.544 67.784 C 209.749 67.744,209.542 67.713,209.083 67.714 C 208.625 67.716,208.457 67.748,208.711 67.786 M186.127 67.951 C 186.334 67.991,186.634 67.990,186.794 67.948 C 186.953 67.906,186.783 67.874,186.417 67.875 C 186.050 67.877,185.920 67.911,186.127 67.951 M213.294 67.951 C 213.501 67.991,213.801 67.990,213.960 67.948 C 214.120 67.906,213.950 67.874,213.583 67.875 C 213.217 67.877,213.086 67.911,213.294 67.951 M97.000 68.225 C 97.000 68.269,97.300 68.543,97.667 68.833 C 98.033 69.124,98.332 69.299,98.330 69.222 C 98.326 69.078,97.000 68.084,97.000 68.225 M302.296 68.631 C 301.955 68.880,301.673 69.146,301.671 69.222 C 301.669 69.299,301.967 69.124,302.333 68.833 C 302.700 68.543,303.000 68.274,303.000 68.236 C 303.000 68.126,302.953 68.153,302.296 68.631 M98.821 69.722 C 99.245 70.189,99.337 70.247,99.328 70.042 C 99.325 69.973,99.119 69.773,98.870 69.597 L 98.417 69.277 98.821 69.722 M301.018 69.676 C 300.799 69.859,300.655 70.044,300.698 70.087 C 300.741 70.130,300.952 69.978,301.167 69.749 C 301.635 69.252,301.568 69.219,301.018 69.676 M100.000 70.719 C 100.000 70.747,100.244 70.947,100.542 71.162 L 101.083 71.553 100.679 71.110 C 100.334 70.731,100.000 70.539,100.000 70.719 M103.935 70.879 C 104.043 71.128,105.672 72.390,105.654 72.211 C 105.648 72.141,105.238 71.766,104.744 71.379 C 104.251 70.992,103.887 70.767,103.935 70.879 M295.221 71.387 C 294.746 71.770,294.353 72.141,294.346 72.211 C 294.328 72.392,295.958 71.127,296.066 70.875 C 296.184 70.603,296.217 70.583,295.221 71.387 M299.321 71.110 L 298.917 71.553 299.458 71.162 C 300.022 70.755,300.094 70.667,299.862 70.667 C 299.787 70.667,299.543 70.866,299.321 71.110 M101.172 71.617 C 101.175 71.690,101.362 71.885,101.589 72.049 C 101.815 72.214,101.998 72.289,101.995 72.216 C 101.992 72.143,101.804 71.949,101.578 71.784 C 101.352 71.619,101.169 71.544,101.172 71.617 M298.351 71.852 C 298.132 72.030,297.982 72.204,298.018 72.240 C 298.054 72.275,298.263 72.159,298.482 71.981 C 298.701 71.804,298.851 71.629,298.815 71.594 C 298.779 71.558,298.571 71.674,298.351 71.852 M105.839 72.453 C 105.845 72.619,106.666 73.222,106.759 73.130 C 106.798 73.091,106.605 72.894,106.331 72.692 C 106.057 72.489,105.836 72.382,105.839 72.453 M293.583 72.764 C 293.308 72.985,293.158 73.163,293.250 73.160 C 293.456 73.154,294.239 72.516,294.149 72.427 C 294.113 72.392,293.858 72.544,293.583 72.764 M103.333 73.394 C 103.333 73.440,103.558 73.638,103.833 73.833 C 104.108 74.029,104.333 74.152,104.333 74.106 C 104.333 74.060,104.108 73.862,103.833 73.667 C 103.558 73.471,103.333 73.348,103.333 73.394 M107.009 73.444 C 107.015 73.521,107.408 73.879,107.884 74.240 C 108.361 74.601,108.645 74.767,108.516 74.608 C 108.177 74.191,106.998 73.281,107.009 73.444 M135.417 73.589 C 135.000 73.790,134.986 73.813,135.333 73.728 C 135.806 73.613,136.336 73.342,136.083 73.346 C 135.992 73.347,135.692 73.457,135.417 73.589 M264.000 73.472 C 264.137 73.557,264.438 73.676,264.667 73.738 C 264.956 73.815,265.007 73.802,264.833 73.695 C 264.696 73.610,264.396 73.490,264.167 73.429 C 263.877 73.351,263.826 73.365,264.000 73.472 M292.074 74.101 L 291.250 74.860 292.083 74.227 C 292.542 73.880,292.948 73.574,292.986 73.547 C 293.024 73.521,293.020 73.464,292.977 73.421 C 292.933 73.378,292.527 73.684,292.074 74.101 M296.083 73.765 L 295.583 74.194 296.125 73.836 C 296.423 73.639,296.667 73.445,296.667 73.405 C 296.667 73.281,296.596 73.324,296.083 73.765 M134.042 74.020 C 133.744 74.106,133.500 74.213,133.500 74.258 C 133.500 74.379,134.391 74.147,134.575 73.978 C 134.757 73.812,134.763 73.812,134.042 74.020 M132.357 74.525 C 132.049 74.613,131.829 74.718,131.869 74.758 C 131.908 74.797,132.273 74.725,132.679 74.598 C 133.507 74.338,133.227 74.274,132.357 74.525 M108.984 75.049 C 109.253 75.390,110.500 76.402,110.500 76.280 C 110.500 76.235,110.106 75.873,109.625 75.475 C 109.144 75.078,108.855 74.886,108.984 75.049 M290.250 75.603 C 289.529 76.263,289.508 76.297,290.099 75.856 C 290.721 75.392,291.299 74.828,291.145 74.837 C 291.111 74.839,290.708 75.183,290.250 75.603 M129.542 75.431 C 129.244 75.561,129.000 75.700,129.000 75.739 C 129.000 75.840,129.918 75.564,130.279 75.354 C 130.739 75.086,130.201 75.142,129.542 75.431 M128.208 75.931 C 127.910 76.061,127.667 76.201,127.667 76.242 C 127.667 76.365,128.660 75.979,128.760 75.817 C 128.871 75.637,128.887 75.634,128.208 75.931 M106.847 76.375 C 106.885 76.398,107.142 76.604,107.417 76.833 L 107.917 77.250 107.513 76.792 C 107.290 76.540,107.034 76.333,106.943 76.333 C 106.852 76.333,106.809 76.352,106.847 76.375 M292.487 76.792 L 292.083 77.250 292.583 76.833 C 292.858 76.604,293.115 76.398,293.153 76.375 C 293.191 76.352,293.148 76.333,293.057 76.333 C 292.966 76.333,292.710 76.540,292.487 76.792 M110.904 76.754 C 111.081 76.887,111.266 76.956,111.316 76.906 C 111.421 76.801,110.998 76.504,110.750 76.508 C 110.658 76.509,110.728 76.620,110.904 76.754 M288.838 76.660 C 288.703 76.745,288.634 76.856,288.684 76.906 C 288.734 76.956,288.919 76.887,289.096 76.754 C 289.447 76.488,289.233 76.410,288.838 76.660 M125.250 77.092 C 124.792 77.314,124.604 77.450,124.833 77.394 C 125.316 77.275,126.167 76.862,126.167 76.746 C 126.167 76.642,126.208 76.627,125.250 77.092 M274.833 77.250 C 275.063 77.381,275.325 77.488,275.417 77.488 C 275.508 77.488,275.396 77.381,275.167 77.250 C 274.938 77.119,274.675 77.012,274.583 77.012 C 274.492 77.012,274.604 77.119,274.833 77.250 M108.167 77.380 C 108.167 77.412,108.392 77.653,108.667 77.917 C 108.942 78.180,109.167 78.321,109.167 78.229 C 109.167 78.138,108.942 77.896,108.667 77.693 C 108.392 77.490,108.167 77.349,108.167 77.380 M291.257 77.749 C 290.985 77.970,290.803 78.192,290.852 78.241 C 290.901 78.290,291.156 78.106,291.418 77.832 C 291.992 77.232,291.928 77.200,291.257 77.749 M123.250 77.913 C 122.792 78.134,122.529 78.315,122.667 78.316 C 122.804 78.317,123.254 78.138,123.667 77.917 C 124.640 77.396,124.331 77.393,123.250 77.913 M276.333 77.917 C 276.746 78.138,277.196 78.317,277.333 78.316 C 277.471 78.315,277.208 78.134,276.750 77.913 C 275.669 77.393,275.360 77.396,276.333 77.917 M120.750 78.833 C 120.628 79.030,120.791 79.030,121.250 78.833 C 121.571 78.695,121.570 78.690,121.218 78.678 C 121.017 78.672,120.807 78.742,120.750 78.833 M278.750 78.833 C 279.209 79.030,279.372 79.030,279.250 78.833 C 279.193 78.742,278.983 78.672,278.782 78.678 C 278.430 78.690,278.429 78.695,278.750 78.833 M110.014 78.958 C 110.022 79.027,110.341 79.342,110.722 79.659 L 111.417 80.235 110.758 79.534 C 110.080 78.813,109.990 78.743,110.014 78.958 M115.333 82.669 C 115.471 82.757,115.802 82.829,116.069 82.831 C 116.714 82.834,116.574 82.738,115.750 82.612 C 115.296 82.542,115.163 82.560,115.333 82.669 M284.000 82.667 C 283.423 82.788,283.422 82.790,283.917 82.809 C 284.192 82.820,284.529 82.756,284.667 82.667 C 284.944 82.487,284.852 82.487,284.000 82.667 M116.809 82.876 C 116.893 82.960,117.139 83.000,117.356 82.966 C 117.689 82.914,117.666 82.890,117.203 82.814 C 116.872 82.759,116.716 82.783,116.809 82.876 M282.750 82.833 L 282.250 82.961 282.698 82.980 C 282.945 82.991,283.193 82.925,283.250 82.833 C 283.307 82.742,283.330 82.676,283.302 82.686 C 283.273 82.697,283.025 82.763,282.750 82.833 " stroke="none" fill="#adadad" fill-rule="evenodd"></path><path id="path1" d="M42.500 32.704 C 42.500 32.815,43.977 33.721,44.627 34.009 C 44.924 34.141,45.167 34.305,45.167 34.374 C 45.167 34.443,45.241 34.500,45.331 34.500 C 45.553 34.500,48.889 36.487,49.018 36.696 C 49.075 36.787,49.171 36.850,49.232 36.836 C 49.454 36.784,50.307 37.241,50.228 37.369 C 50.184 37.441,50.249 37.500,50.374 37.500 C 50.688 37.500,51.497 37.890,51.499 38.042 C 51.499 38.110,51.578 38.167,51.674 38.167 C 51.770 38.167,52.598 38.617,53.513 39.167 C 54.429 39.717,55.255 40.167,55.349 40.167 C 55.443 40.167,55.473 40.242,55.417 40.333 C 55.360 40.425,55.416 40.500,55.540 40.500 C 55.855 40.500,56.664 40.890,56.665 41.042 C 56.666 41.110,56.748 41.167,56.847 41.167 C 56.946 41.167,57.490 41.441,58.055 41.776 C 58.621 42.111,59.533 42.645,60.083 42.963 C 60.633 43.281,61.346 43.692,61.667 43.878 C 61.987 44.063,62.609 44.415,63.048 44.659 C 63.487 44.904,63.980 45.212,64.143 45.344 C 64.307 45.475,64.515 45.597,64.605 45.614 C 64.696 45.632,65.349 45.988,66.057 46.406 C 66.764 46.824,67.416 47.167,67.505 47.167 C 67.594 47.167,67.667 47.233,67.667 47.314 C 67.667 47.395,67.798 47.505,67.958 47.559 C 68.119 47.613,68.362 47.730,68.500 47.820 C 69.252 48.310,71.658 49.642,71.970 49.740 C 72.170 49.804,72.333 49.912,72.333 49.981 C 72.333 50.049,72.652 50.282,73.042 50.499 C 73.431 50.715,73.787 50.940,73.833 50.999 C 73.879 51.057,74.367 51.398,74.917 51.755 C 76.173 52.570,77.711 53.695,77.872 53.916 C 77.940 54.008,77.996 54.022,77.997 53.946 C 77.999 53.871,78.110 53.909,78.244 54.030 C 78.792 54.524,79.000 54.675,79.000 54.578 C 79.000 54.522,79.110 54.575,79.244 54.696 C 79.667 55.078,79.881 55.232,81.333 56.205 C 82.112 56.727,82.998 57.382,83.302 57.661 C 83.606 57.939,83.906 58.167,83.969 58.167 C 84.032 58.167,84.301 58.354,84.568 58.584 C 84.834 58.813,85.110 59.000,85.181 59.000 C 85.252 59.000,85.409 59.097,85.530 59.215 C 85.651 59.333,86.369 59.899,87.125 60.472 C 87.881 61.045,88.685 61.700,88.913 61.928 C 89.140 62.155,89.346 62.321,89.371 62.297 C 89.412 62.257,90.630 63.123,90.833 63.336 C 90.879 63.384,91.817 64.092,92.917 64.910 C 94.017 65.727,95.041 66.513,95.192 66.656 C 95.343 66.800,95.713 67.104,96.013 67.333 C 96.313 67.563,96.639 67.825,96.738 67.917 C 96.836 68.008,97.217 68.306,97.583 68.577 C 98.497 69.254,98.670 69.439,98.534 69.590 C 98.469 69.662,98.499 69.673,98.600 69.616 C 98.700 69.558,98.941 69.659,99.134 69.839 C 99.328 70.019,99.564 70.167,99.660 70.167 C 99.755 70.167,99.833 70.279,99.833 70.417 C 99.833 70.554,99.914 70.667,100.012 70.667 C 100.169 70.667,101.420 71.637,102.162 72.333 C 102.308 72.471,102.722 72.808,103.081 73.083 C 103.441 73.358,103.910 73.752,104.125 73.958 C 104.340 74.165,104.550 74.333,104.592 74.333 C 104.658 74.333,105.180 74.767,105.898 75.418 C 106.000 75.510,106.678 76.073,107.404 76.668 C 108.131 77.263,108.999 78.012,109.334 78.333 C 109.668 78.654,109.976 78.917,110.018 78.917 C 110.113 78.917,112.010 80.546,112.836 81.337 C 113.503 81.975,114.164 82.333,114.675 82.333 C 114.854 82.333,115.000 82.392,115.000 82.464 C 115.000 82.536,115.131 82.599,115.292 82.603 C 115.802 82.616,117.567 82.855,117.683 82.927 C 117.862 83.037,120.333 82.604,120.333 82.462 C 120.333 82.391,120.403 82.333,120.488 82.333 C 120.628 82.333,121.153 82.107,123.667 80.965 C 124.079 80.778,124.979 80.405,125.667 80.137 C 126.354 79.868,127.067 79.585,127.250 79.506 C 127.547 79.379,128.106 79.161,128.333 79.084 C 128.379 79.068,128.628 78.968,128.886 78.861 C 129.144 78.754,129.450 78.667,129.566 78.667 C 129.683 78.667,129.834 78.610,129.903 78.542 C 129.972 78.473,130.078 78.410,130.139 78.402 C 130.200 78.394,130.362 78.344,130.500 78.290 C 131.228 78.006,132.783 77.462,133.000 77.416 C 133.137 77.387,133.475 77.275,133.750 77.167 C 134.025 77.059,134.362 76.946,134.500 76.917 C 134.637 76.887,135.350 76.663,136.083 76.417 C 136.817 76.172,137.492 75.953,137.583 75.931 C 137.723 75.896,138.823 75.574,139.417 75.393 C 139.830 75.268,141.608 74.809,141.833 74.770 C 141.971 74.746,142.196 74.682,142.333 74.627 C 142.610 74.517,143.490 74.280,143.750 74.246 C 143.842 74.233,144.254 74.128,144.666 74.011 C 145.078 73.894,145.528 73.771,145.666 73.737 C 145.804 73.704,146.254 73.592,146.667 73.490 C 147.079 73.387,147.567 73.275,147.750 73.240 C 148.201 73.154,149.976 72.764,151.500 72.416 C 152.914 72.093,154.091 71.840,154.583 71.751 C 154.767 71.719,155.554 71.574,156.333 71.431 C 157.881 71.146,160.672 70.674,161.333 70.585 C 161.563 70.554,162.275 70.439,162.917 70.330 C 163.558 70.221,164.271 70.109,164.500 70.081 C 164.729 70.053,165.517 69.942,166.250 69.833 C 166.983 69.724,167.808 69.613,168.083 69.585 C 168.358 69.557,169.258 69.444,170.083 69.332 C 170.908 69.221,171.808 69.111,172.083 69.087 C 172.358 69.064,173.446 68.949,174.500 68.833 C 175.554 68.717,176.717 68.604,177.083 68.583 C 177.450 68.561,178.762 68.451,180.000 68.339 C 181.237 68.226,182.700 68.113,183.250 68.088 C 183.800 68.063,185.975 67.953,188.083 67.844 C 190.192 67.735,195.554 67.646,200.000 67.646 C 204.446 67.646,209.808 67.735,211.917 67.844 C 214.025 67.953,216.200 68.063,216.750 68.088 C 217.300 68.113,218.762 68.226,220.000 68.339 C 221.237 68.451,222.550 68.561,222.917 68.583 C 223.283 68.604,224.446 68.717,225.500 68.833 C 226.554 68.949,227.642 69.064,227.917 69.087 C 228.192 69.111,229.092 69.221,229.917 69.332 C 230.742 69.444,231.642 69.557,231.917 69.585 C 232.192 69.613,233.017 69.724,233.750 69.833 C 234.483 69.942,235.271 70.053,235.500 70.081 C 235.729 70.109,236.442 70.221,237.083 70.330 C 237.725 70.439,238.438 70.554,238.667 70.585 C 239.328 70.674,242.119 71.146,243.667 71.431 C 244.446 71.574,245.233 71.719,245.417 71.751 C 245.909 71.840,247.086 72.093,248.500 72.416 C 250.024 72.764,251.799 73.154,252.250 73.240 C 252.433 73.275,252.921 73.387,253.333 73.490 C 253.746 73.592,254.196 73.704,254.334 73.737 C 254.472 73.771,254.922 73.894,255.334 74.011 C 255.746 74.128,256.158 74.233,256.250 74.246 C 256.510 74.280,257.390 74.517,257.667 74.627 C 257.804 74.682,258.029 74.746,258.167 74.770 C 258.392 74.809,260.170 75.268,260.583 75.393 C 261.177 75.574,262.277 75.896,262.417 75.931 C 262.508 75.953,263.183 76.172,263.917 76.417 C 264.650 76.663,265.362 76.887,265.500 76.917 C 265.637 76.946,265.975 77.059,266.250 77.167 C 266.525 77.275,266.862 77.387,267.000 77.416 C 267.217 77.462,268.772 78.006,269.500 78.290 C 269.637 78.344,269.800 78.394,269.861 78.402 C 269.922 78.410,270.028 78.473,270.097 78.542 C 270.166 78.610,270.317 78.667,270.434 78.667 C 270.550 78.667,270.856 78.754,271.114 78.861 C 271.372 78.968,271.621 79.068,271.667 79.084 C 271.894 79.161,272.453 79.379,272.750 79.506 C 272.933 79.585,273.646 79.868,274.333 80.137 C 275.021 80.405,275.921 80.778,276.333 80.965 C 278.847 82.107,279.372 82.333,279.512 82.333 C 279.597 82.333,279.667 82.391,279.667 82.462 C 279.667 82.604,282.138 83.037,282.317 82.927 C 282.433 82.855,284.198 82.616,284.708 82.603 C 284.869 82.599,285.000 82.536,285.000 82.464 C 285.000 82.392,285.146 82.333,285.325 82.333 C 285.832 82.333,286.496 81.976,287.179 81.336 C 287.523 81.014,288.125 80.487,288.518 80.167 C 288.910 79.846,289.367 79.452,289.532 79.292 C 289.698 79.131,289.865 79.000,289.903 79.000 C 289.942 79.000,290.266 78.719,290.624 78.375 C 290.982 78.031,291.869 77.262,292.595 76.667 C 294.010 75.505,294.751 74.875,295.095 74.542 C 295.213 74.427,295.349 74.333,295.397 74.333 C 295.445 74.333,295.660 74.165,295.875 73.958 C 296.090 73.752,296.559 73.358,296.919 73.083 C 297.278 72.808,297.692 72.471,297.838 72.333 C 298.580 71.637,299.831 70.667,299.988 70.667 C 300.086 70.667,300.167 70.554,300.167 70.417 C 300.167 70.279,300.245 70.167,300.340 70.167 C 300.436 70.167,300.672 70.019,300.866 69.839 C 301.059 69.659,301.300 69.558,301.400 69.616 C 301.501 69.673,301.531 69.662,301.466 69.590 C 301.330 69.439,301.503 69.254,302.417 68.577 C 302.783 68.306,303.164 68.008,303.262 67.917 C 303.361 67.825,303.686 67.563,303.985 67.333 C 304.284 67.104,304.642 66.810,304.780 66.681 C 304.918 66.551,305.681 65.964,306.474 65.375 C 308.706 63.722,308.874 63.595,309.068 63.417 C 309.168 63.325,309.609 62.987,310.048 62.667 C 310.488 62.346,311.125 61.841,311.465 61.546 C 311.805 61.250,312.134 61.006,312.196 61.004 C 312.259 61.002,312.409 60.903,312.530 60.784 C 312.651 60.665,313.275 60.178,313.917 59.702 C 314.558 59.226,315.271 58.687,315.500 58.504 C 315.729 58.321,316.010 58.170,316.125 58.169 C 316.240 58.168,316.333 58.089,316.333 57.995 C 316.333 57.900,316.465 57.774,316.625 57.715 C 316.785 57.655,317.029 57.486,317.167 57.339 C 317.304 57.192,317.829 56.799,318.333 56.466 C 318.837 56.133,319.625 55.594,320.083 55.267 C 320.542 54.940,321.057 54.578,321.229 54.462 C 321.400 54.345,321.644 54.151,321.770 54.030 C 321.897 53.909,322.001 53.871,322.003 53.946 C 322.004 54.022,322.060 54.002,322.128 53.903 C 322.244 53.732,324.088 52.427,325.563 51.472 C 325.941 51.227,326.325 50.962,326.417 50.883 C 326.508 50.804,326.883 50.557,327.250 50.335 C 327.617 50.113,327.942 49.871,327.972 49.799 C 328.003 49.726,328.110 49.667,328.210 49.667 C 328.310 49.667,329.001 49.302,329.745 48.856 C 330.488 48.410,331.263 47.992,331.465 47.928 C 331.668 47.863,331.833 47.741,331.833 47.655 C 331.833 47.570,331.946 47.500,332.083 47.500 C 332.221 47.500,332.333 47.421,332.333 47.323 C 332.333 47.226,332.400 47.188,332.481 47.238 C 332.562 47.289,332.722 47.218,332.835 47.081 C 332.948 46.945,333.105 46.833,333.184 46.833 C 333.263 46.833,333.809 46.539,334.398 46.178 C 334.986 45.818,335.513 45.568,335.567 45.623 C 335.622 45.677,335.667 45.635,335.667 45.528 C 335.667 45.421,335.779 45.333,335.917 45.333 C 336.054 45.333,336.167 45.258,336.167 45.167 C 336.167 45.075,336.270 45.000,336.396 45.000 C 336.523 45.000,336.719 44.888,336.832 44.752 C 336.945 44.615,337.096 44.540,337.167 44.583 C 337.238 44.627,337.388 44.551,337.502 44.415 C 337.615 44.278,337.811 44.167,337.937 44.167 C 338.063 44.167,338.167 44.092,338.167 44.000 C 338.167 43.908,338.260 43.832,338.375 43.830 C 338.490 43.828,338.771 43.679,339.000 43.500 C 339.229 43.321,339.542 43.172,339.694 43.170 C 339.847 43.168,339.997 43.106,340.028 43.032 C 340.104 42.848,342.917 41.167,343.148 41.167 C 343.250 41.167,343.334 41.110,343.335 41.042 C 343.336 40.890,344.145 40.500,344.460 40.500 C 344.584 40.500,344.640 40.425,344.583 40.333 C 344.527 40.242,344.635 40.167,344.823 40.167 C 345.012 40.167,345.167 40.087,345.167 39.990 C 345.167 39.893,345.242 39.860,345.333 39.917 C 345.425 39.973,345.500 39.945,345.500 39.854 C 345.500 39.764,345.669 39.636,345.875 39.572 C 346.081 39.508,346.287 39.405,346.333 39.344 C 346.431 39.215,347.893 38.333,348.500 38.038 C 348.950 37.820,349.532 37.468,349.667 37.333 C 349.712 37.287,350.050 37.091,350.417 36.896 C 350.783 36.701,351.758 36.147,352.583 35.664 C 354.119 34.767,354.719 34.420,355.761 33.830 C 356.087 33.645,356.525 33.382,356.732 33.246 C 356.940 33.110,357.141 33.029,357.180 33.066 C 357.218 33.103,357.347 33.028,357.465 32.900 C 357.786 32.551,357.107 32.593,355.833 33.000 C 355.259 33.183,354.654 33.333,354.488 33.333 C 354.322 33.333,354.137 33.413,354.076 33.511 C 354.016 33.609,353.864 33.650,353.738 33.602 C 353.613 33.554,353.470 33.580,353.421 33.659 C 353.372 33.739,353.032 33.855,352.666 33.917 C 352.300 33.979,352.000 34.098,352.000 34.181 C 352.000 34.265,351.854 34.333,351.677 34.333 C 351.499 34.333,351.309 34.405,351.254 34.493 C 351.200 34.580,351.046 34.610,350.911 34.558 C 350.777 34.507,350.667 34.547,350.667 34.649 C 350.667 34.750,350.573 34.836,350.458 34.839 C 350.344 34.842,349.950 34.990,349.583 35.167 C 349.217 35.344,348.830 35.491,348.724 35.494 C 348.618 35.497,348.130 35.699,347.640 35.942 C 347.151 36.185,346.474 36.518,346.137 36.683 C 345.800 36.847,345.388 37.061,345.221 37.158 C 344.928 37.327,344.263 37.585,343.917 37.665 C 343.825 37.686,343.563 37.834,343.333 37.994 C 343.104 38.154,342.542 38.474,342.083 38.706 C 340.070 39.724,339.078 40.264,338.868 40.458 C 338.744 40.573,338.536 40.667,338.405 40.667 C 338.274 40.667,338.167 40.742,338.167 40.833 C 338.167 40.925,338.089 41.000,337.994 41.000 C 337.899 41.000,336.943 41.532,335.869 42.183 C 334.795 42.834,333.517 43.586,333.029 43.854 C 331.879 44.488,329.766 45.871,329.694 46.037 C 329.664 46.108,329.538 46.167,329.415 46.167 C 329.291 46.167,329.073 46.285,328.929 46.429 C 328.785 46.573,328.667 46.648,328.667 46.597 C 328.667 46.545,328.514 46.634,328.328 46.793 C 328.142 46.953,327.944 47.058,327.888 47.027 C 327.833 46.997,327.741 47.037,327.685 47.116 C 327.496 47.385,326.103 48.333,325.898 48.333 C 325.786 48.333,325.669 48.396,325.639 48.473 C 325.554 48.687,324.006 49.787,323.208 50.200 C 322.819 50.401,322.500 50.626,322.500 50.700 C 322.500 50.773,322.391 50.833,322.258 50.833 C 322.125 50.833,321.940 50.965,321.847 51.125 C 321.753 51.285,321.675 51.349,321.672 51.266 C 321.669 51.183,321.517 51.289,321.333 51.500 C 321.150 51.711,320.999 51.817,320.997 51.734 C 320.996 51.651,320.935 51.678,320.861 51.794 C 320.756 51.959,317.800 54.132,315.773 55.535 C 315.401 55.792,314.327 56.599,314.059 56.821 C 313.955 56.909,313.823 56.934,313.768 56.879 C 313.712 56.823,313.667 56.850,313.667 56.939 C 313.667 57.027,313.097 57.508,312.401 58.008 C 311.705 58.508,311.048 58.992,310.942 59.085 C 310.243 59.698,308.480 61.000,308.351 61.000 C 308.265 61.000,308.169 61.056,308.139 61.125 C 308.064 61.293,306.398 62.667,306.269 62.667 C 306.213 62.667,306.028 62.798,305.858 62.958 C 305.478 63.318,305.433 63.355,301.750 66.311 C 300.100 67.636,298.712 68.767,298.667 68.826 C 298.621 68.885,298.322 69.116,298.002 69.339 C 297.683 69.563,297.301 69.859,297.155 69.998 C 296.903 70.236,296.153 70.863,294.833 71.939 C 294.512 72.201,294.166 72.490,294.063 72.582 C 293.854 72.769,293.029 73.455,291.167 74.988 C 290.479 75.554,289.729 76.189,289.500 76.398 C 289.271 76.608,288.897 76.878,288.670 76.999 C 288.443 77.120,288.156 77.320,288.033 77.443 C 287.910 77.566,287.709 77.667,287.585 77.667 C 287.462 77.667,287.336 77.726,287.306 77.798 C 286.819 78.946,281.360 79.586,278.667 78.811 C 277.980 78.614,277.847 78.561,276.026 77.759 C 274.704 77.177,273.849 76.811,273.667 76.750 C 273.621 76.735,273.358 76.627,273.083 76.511 C 272.808 76.395,272.508 76.282,272.417 76.259 C 272.325 76.236,272.119 76.168,271.958 76.109 C 271.592 75.972,271.200 75.849,271.040 75.820 C 270.972 75.808,270.635 75.654,270.292 75.479 C 269.948 75.303,269.667 75.208,269.667 75.267 C 269.667 75.326,269.570 75.294,269.452 75.196 C 269.262 75.038,268.595 74.839,267.370 74.574 C 266.861 74.464,264.211 73.590,263.583 73.326 C 263.308 73.210,263.008 73.096,262.917 73.072 C 262.825 73.048,262.112 72.828,261.333 72.584 C 259.797 72.103,256.455 71.178,255.917 71.086 C 255.733 71.054,255.340 70.952,255.042 70.859 C 254.744 70.766,254.500 70.725,254.500 70.767 C 254.500 70.810,254.347 70.763,254.159 70.663 C 253.972 70.563,253.278 70.368,252.618 70.230 C 250.744 69.839,249.351 69.537,248.083 69.248 C 246.806 68.956,244.704 68.538,243.917 68.420 C 243.480 68.354,242.095 68.110,241.083 67.920 C 240.900 67.886,240.338 67.773,239.833 67.670 C 238.408 67.379,235.236 66.914,233.583 66.753 C 233.217 66.717,232.354 66.603,231.667 66.498 C 230.979 66.394,230.117 66.277,229.750 66.240 C 229.383 66.202,228.258 66.058,227.250 65.920 C 225.609 65.694,222.013 65.373,219.750 65.251 C 219.292 65.226,217.829 65.118,216.500 65.012 C 208.930 64.406,191.070 64.406,183.500 65.012 C 182.171 65.118,180.708 65.226,180.250 65.251 C 177.987 65.373,174.391 65.694,172.750 65.920 C 171.742 66.058,170.617 66.202,170.250 66.240 C 169.883 66.277,169.021 66.394,168.333 66.498 C 167.646 66.603,166.783 66.717,166.417 66.753 C 164.764 66.914,161.592 67.379,160.167 67.670 C 159.662 67.773,159.100 67.886,158.917 67.920 C 157.905 68.110,156.520 68.354,156.083 68.420 C 155.296 68.538,153.194 68.956,151.917 69.248 C 150.649 69.537,149.256 69.839,147.382 70.230 C 146.722 70.368,146.028 70.563,145.841 70.663 C 145.653 70.763,145.500 70.810,145.500 70.767 C 145.500 70.725,145.256 70.766,144.958 70.859 C 144.660 70.952,144.267 71.054,144.083 71.086 C 143.545 71.178,140.203 72.103,138.667 72.584 C 137.887 72.828,137.175 73.046,137.083 73.068 C 136.992 73.090,136.648 73.225,136.319 73.367 C 135.990 73.510,135.540 73.678,135.319 73.741 C 135.098 73.803,134.767 73.921,134.583 74.003 C 134.002 74.261,131.978 74.833,131.644 74.833 C 131.467 74.833,130.960 75.017,130.517 75.241 C 130.075 75.466,129.533 75.675,129.314 75.707 C 129.096 75.739,128.760 75.852,128.567 75.958 C 128.375 76.064,128.013 76.188,127.761 76.234 C 127.510 76.279,127.211 76.394,127.097 76.488 C 126.984 76.583,126.746 76.688,126.570 76.722 C 126.394 76.756,125.875 76.949,125.417 77.150 C 121.625 78.815,121.410 78.888,119.583 79.140 C 118.073 79.348,118.012 79.346,116.290 79.063 C 114.932 78.839,112.821 78.097,112.694 77.798 C 112.664 77.726,112.538 77.667,112.415 77.667 C 112.291 77.667,112.090 77.566,111.967 77.443 C 111.844 77.320,111.557 77.120,111.330 76.999 C 111.103 76.878,110.729 76.608,110.500 76.398 C 110.271 76.189,109.521 75.554,108.833 74.988 C 106.971 73.455,106.146 72.769,105.937 72.582 C 105.834 72.490,105.487 72.201,105.167 71.939 C 103.847 70.863,103.097 70.236,102.845 69.998 C 102.699 69.859,102.317 69.563,101.998 69.339 C 101.678 69.116,101.379 68.885,101.333 68.826 C 101.287 68.767,99.900 67.636,98.250 66.311 C 96.600 64.987,95.100 63.779,94.917 63.627 C 94.733 63.475,93.346 62.412,91.833 61.264 C 90.321 60.116,88.715 58.893,88.264 58.547 C 87.813 58.200,87.317 57.842,87.162 57.750 C 87.006 57.658,86.625 57.375,86.314 57.121 C 85.732 56.644,81.793 53.788,80.539 52.935 C 80.151 52.671,79.645 52.280,79.416 52.068 C 79.187 51.856,78.999 51.735,78.997 51.800 C 78.996 51.864,78.940 51.841,78.872 51.748 C 78.766 51.601,74.171 48.461,72.500 47.394 C 72.179 47.188,71.785 46.904,71.625 46.760 C 71.465 46.617,71.333 46.543,71.333 46.595 C 71.333 46.648,71.215 46.573,71.071 46.429 C 70.927 46.285,70.709 46.167,70.585 46.167 C 70.462 46.167,70.336 46.110,70.306 46.042 C 70.240 45.895,67.918 44.388,66.833 43.788 C 65.403 42.997,64.102 42.166,63.971 41.958 C 63.898 41.844,63.837 41.804,63.836 41.871 C 63.834 41.937,63.455 41.768,62.993 41.496 C 62.530 41.223,62.087 41.000,62.007 41.000 C 61.927 41.000,61.836 40.944,61.806 40.875 C 61.775 40.806,61.487 40.619,61.167 40.460 C 60.846 40.300,60.058 39.875,59.417 39.514 C 58.775 39.154,57.987 38.737,57.667 38.588 C 57.346 38.438,56.896 38.192,56.667 38.040 C 56.438 37.888,56.164 37.749,56.058 37.732 C 55.881 37.703,54.697 37.135,53.917 36.705 C 53.453 36.449,51.706 35.667,51.599 35.667 C 51.550 35.667,51.100 35.479,50.599 35.250 C 50.098 35.021,49.608 34.833,49.511 34.833 C 49.413 34.833,49.333 34.755,49.333 34.659 C 49.333 34.564,49.240 34.501,49.125 34.519 C 48.913 34.553,48.522 34.432,47.910 34.142 C 47.722 34.053,47.460 33.962,47.326 33.938 C 46.984 33.879,46.310 33.671,45.917 33.504 C 45.733 33.426,45.246 33.278,44.833 33.176 C 44.421 33.073,43.971 32.959,43.833 32.922 C 43.157 32.741,42.500 32.633,42.500 32.704 " stroke="none" fill="#fcfcfc" fill-rule="evenodd"></path></g></svg>